<?xml version="1.0" standalone="no"?>
<!DOCTYPE svg PUBLIC "-//W3C//DTD SVG 20010904//EN"
 "http://www.w3.org/TR/2001/REC-SVG-20010904/DTD/svg10.dtd">
<svg version="1.0" xmlns="http://www.w3.org/2000/svg"
 width="512.000000pt" height="512.000000pt" viewBox="0 0 512.000000 512.000000"
 preserveAspectRatio="xMidYMid meet">

<g transform="translate(0.000000,512.000000) scale(0.100000,-0.100000)"
fill="#000000" stroke="none">
<path d="M3067 4523 c-10 -3 -22 -16 -28 -29 -13 -35 -12 -2294 1 -2328 6 -17
17 -26 31 -26 40 0 507 260 542 301 16 20 17 84 17 1040 l0 1018 -22 15 c-19
14 -61 16 -273 15 -137 -1 -258 -3 -268 -6z"/>
<path d="M2258 3833 c-73 -8 -68 64 -68 -1040 0 -620 4 -1001 10 -1017 5 -14
16 -26 23 -26 53 0 517 208 547 245 13 16 15 131 18 874 2 471 0 875 -3 898
-9 66 -18 68 -270 69 -121 1 -237 -1 -257 -3z"/>
<path d="M1362 3013 c-47 -10 -47 -3 -50 -770 -1 -398 1 -737 6 -755 7 -30 12
-33 50 -36 27 -2 76 9 144 31 57 19 130 42 163 52 78 22 195 72 217 92 17 15
18 58 18 688 0 613 -1 674 -17 686 -12 11 -70 14 -262 15 -135 1 -256 0 -269
-3z"/>
<path d="M3935 2452 c-17 -9 -93 -59 -169 -110 -218 -146 -419 -269 -706 -431
-101 -57 -549 -277 -680 -334 -209 -91 -473 -189 -610 -227 -36 -10 -104 -29
-152 -43 -48 -15 -174 -42 -280 -62 -236 -44 -228 -42 -228 -68 0 -26 158
-183 261 -258 267 -196 594 -312 919 -326 182 -7 303 6 491 56 461 122 826
407 1052 821 82 152 161 398 136 425 -10 10 -97 -31 -224 -106 -158 -93 -321
-180 -510 -273 -110 -53 -225 -110 -255 -125 -30 -16 -73 -34 -95 -41 -22 -7
-65 -25 -95 -40 -30 -15 -73 -33 -95 -40 -22 -6 -76 -27 -120 -45 -44 -19
-100 -37 -125 -41 -25 -4 -77 -20 -117 -36 -71 -28 -123 -36 -123 -19 0 10 46
33 104 51 21 7 58 26 82 42 24 16 68 37 99 48 31 11 69 29 85 40 17 12 58 33
93 47 34 14 67 29 72 33 6 4 73 40 150 80 77 40 165 87 195 105 30 17 100 58
155 90 267 155 665 417 734 482 l43 42 -4 123 c-3 68 -9 131 -13 141 -9 21
-31 21 -70 -1z"/>
</g>
</svg>
